# AST/ASF file generated using VICON BodyLanguage
# -----------------------------------------------
:version 1.10
:name VICON
:units
  mass 1.0
  length 0.45
  angle deg
:documentation
   .ast/.asf automatically generated from VICON data using
   VICON BodyBuilder and BodyLanguage model FoxedUp or BRILLIANT.MOD
:root
   order TX TY TZ RX RY RZ
   axis XYZ
   position 0 0 0  
   orientation 0 0 0 
:bonedata
  begin
     id 1 
     name lhipjoint
     direction 0.596438 -0.722117 0.35044 
     length 2.43043 
     axis 0 0 0  XYZ
  end
  begin
     id 2 
     name lfemur
     direction 0.34202 -0.939693 0  
     length 7.0339  
     axis 0 0 20  XYZ
    dof rx ry rz
    limits (-160.0 20.0)
           (-70.0 70.0)
           (-60.0 70.0)
  end
  begin
     id 3 
     name ltibia
     direction 0.34202 -0.939693 0   
     length 7.56602   
     axis 0 0 20   XYZ
    dof rx
    limits (-10.0 170.0)
  end
  begin
     id 4 
     name lfoot
     direction 0.0985677 -0.270812 0.957572   
     length 1.85172   
     axis -90 7.62852e-016 20   XYZ
    dof rx rz
    limits (-45.0 90.0)
           (-70.0 20.0)
  end
  begin
     id 5 
     name ltoes
     direction 1.53534e-011 -4.21843e-011 1   
     length 0.929904   
     axis -90 7.62852e-016 20   XYZ
    dof rx
    limits (-90.0 20.0)
  end
  begin
     id 6 
     name rhipjoint
     direction -0.585088 -0.729594 0.354068   
     length 2.40552  
     axis 0 0 0  XYZ 
  end
  begin
     id 7 
     name rfemur
     direction -0.34202 -0.939693 0   
     length 7.12573   
     axis 0 0 -20   XYZ
    dof rx ry rz
    limits (-160.0 20.0)
           (-70.0 70.0)
           (-70.0 60.0)
  end
  begin
     id 8 
     name rtibia
     direction -0.34202 -0.939693 0   
     length 7.35777   
     axis 0 0 -20   XYZ
    dof rx
    limits (-10.0 170.0)
 end
 begin
     id 9 
     name rfoot
     direction -0.120907 -0.33219 0.935431   
     length 2.0994  
     axis -90 -7.62852e-016 -20   XYZ
    dof rx rz
    limits (-45.0 90.0)
           (-20.0 70.0)
  end
  begin
     id 10 
     name rtoes
     direction -1.53577e-011 -4.21787e-011 1   
     length 1.04244   
     axis -90 -7.62852e-016 -20   XYZ
    dof rx
    limits (-90.0 20.0)
  end
  begin
     id 11 
     name lowerback
     direction 0.00268363 0.993603 -0.112896   
     length 2.15839   
     axis 0 0 0   XYZ
    dof rx ry rz
    limits (-20.0 45.0)
           (-30.0 30.0)
           (-30.0 30.0)
  end
  begin
     id 12 
     name upperback
     direction 0.0272563 0.999411 -0.0208618   
     length 2.16443   
     axis 0 0 0   XYZ
    dof rx ry rz
    limits (-20.0 45.0)
           (-30.0 30.0)
           (-30.0 30.0)
  end
  begin
     id 13 
     name thorax
     direction 0.0254655 0.999174 0.0316806   
     length 2.19003   
     axis 0 0 0   XYZ
    dof rx ry rz
    limits (-20.0 45.0)
           (-30.0 30.0)
           (-30.0 30.0)
  end
  begin
     id 14 
     name lowerneck
     direction -0.0102178 0.988048 0.15381   
     length 1.61507   
     axis 0 0 0   XYZ
    dof rx ry rz
    limits (-20.0 45.0)
           (-30.0 30.0)
           (-30.0 30.0)
  end
  begin
     id 15 
     name upperneck
     direction -0.0061965 0.994088 -0.108398   
     length 1.64042   
     axis 0 0 0   XYZ
    dof rx ry rz
    limits (-20.0 45.0)
           (-30.0 30.0)
           (-30.0 30.0)
  end
  begin
     id 16
     name head
     direction -0.00151929 0.998591 -0.0530385  
     length 1.64343  
     axis 0 0 0   XYZ
    dof rx ry rz
    limits (-20.0 45.0)
           (-30.0 30.0)
           (-30.0 30.0)
  end
  begin
     id 17 
     name lclavicle
     direction 0.948974 0.284245 -0.136574  
     length 3.3483  
     axis 0 0 0   XYZ
    dof ry rz
    limits (-20.0 10.0)
           (0.0 20.0)
  end
  begin
     id 18 
     name lhumerus
     direction 1 -4.48961e-011 1.68576e-027   
     length 4.93485   
     axis -180 -30 -90   XYZ
    dof rx ry rz
    limits (-60.0 90.0)
           (-90.0 90.0)
           (-90.0 90.0)
  end
  begin
     id 19
     name lradius
     direction 1 -4.48965e-011 -2.46405e-027   
     length 3.41719   
     axis -180 -30 -90   XYZ
    dof rx
    limits (-10.0 170.0)
  end
  begin
     id 20
     name lwrist
     direction 1 -4.48968e-011 -8.00486e-028   
     length 1.7086   
     axis 3.27501e-015 90 90   XYZ
    dof ry
    limits (-180.0 0.0)
 end
  begin
     id 21 
     name lhand
     direction 1 -4.48977e-011 -1.60161e-027   
     length 0.6241   
     axis 1.02148e-015 90 90   XYZ
    dof rx rz
    limits (-90.0 90.0)
           (-45.0 45.0)
  end
  begin
     id 22 
     name lfingers
     direction 1 -4.49049e-011 -3.21275e-027   
     length 0.503166   
     axis 2.04295e-015 90 90   XYZ
    dof rx
    limits (0.0 90.0)
  end
  begin
     id 23
     name lthumb
     direction 0.707107 -6.34975e-011 0.707107   
     length 0.722448   
     axis -90 45 -1.62303e-014   XYZ
    dof rx rz
    limits (-45.0 45.0)
           (-45.0 45.0)
  end
  begin
     id 24 
     name rclavicle
     direction -0.904485 0.355099 -0.236246   
     length 3.18329  
     axis 0 0 0   XYZ 
    dof ry rz
    limits (-10.0 20.0)
           (-20.0 0.0)
  end
  begin
     id 25 
     name rhumerus
     direction -1 -4.48953e-011 1.32816e-027  
     length 5.22034   
     axis -180 30 90   XYZ
    dof rx ry rz
    limits (-90.0 60.0)
           (-90.0 90.0)
           (-90.0 90.0)
  end
  begin
     id 26 
     name rradius
     direction -1 -4.48965e-011 -3.93727e-027   
     length 3.41809   
     axis -180 30 90   XYZ
    dof rx
    limits (-10.0 170.0)
  end
  begin
     id 27 
     name rwrist
     direction -1 -4.48962e-011 -8.003e-028   
     length 1.70904   
     axis 3.27501e-015 -90 -90   XYZ
    dof ry
    limits (-180.0 0.0)
  end
  begin
     id 28
     name rhand
     direction -1 -4.49008e-011 -1.60365e-027   
     length 0.77534   
     axis 1.02148e-015 -90 -90   XYZ
    dof rx rz
    limits (-90.0 90.0)
           (-45.0 45.0)
  end
  begin
     id 29
     name rfingers
     direction -1 -4.49001e-011 -3.2064e-027   
     length 0.625099   
     axis 2.04295e-015 -90 -90   XYZ
    dof rx
    limits (0.0 90.0)
  end
  begin
     id 30
     name rthumb
     direction -0.707107 -6.34989e-011 0.707107   
     length 0.897521   
     axis -90 -45 1.62303e-014   XYZ
    dof rx rz
    limits (-45.0 45.0)
           (-45.0 45.0)
  end
:hierarchy
  begin
    root lhipjoint rhipjoint lowerback
    lhipjoint lfemur
    lfemur ltibia
    ltibia lfoot
    lfoot ltoes
    rhipjoint rfemur
    rfemur rtibia
    rtibia rfoot
    rfoot rtoes
    lowerback upperback
    upperback thorax
    thorax lowerneck lclavicle rclavicle
    lowerneck upperneck
    upperneck head
    lclavicle lhumerus
    lhumerus lradius
    lradius lwrist
    lwrist lhand lthumb
    lhand lfingers
    rclavicle rhumerus
    rhumerus rradius
    rradius rwrist
    rwrist rhand rthumb
    rhand rfingers
  end

#!OML:ASF \\sashay\E\Suitcase\Project 1\Capture day 1\Session 1\Male1.ASF
:FULLY-SPECIFIED
:DEGREES
1
root 1.17492 17.3544 -33.5646 3.62487 4.43191 0.43863
lowerback 5.44096 -3.29821 -5.39386
upperback 0.75058 -4.74429 -1.78339
thorax -1.98457 -2.3281 1.49668
lowerneck -9.35821 -9.21549 -2.8265
upperneck 9.02663 -13.423 11.4479
head 5.24242 -6.0289 2.93629
rclavicle 1.61016e-014 -7.95139e-016
rhumerus -36.0605 -35.4091 -63.3387
rradius 18.0497
rwrist 4.66566
rhand -15.1342 16.0552
rfingers 7.12502
rthumb 11.0353 -13.6347
lclavicle 1.61016e-014 -7.95139e-016
lhumerus -35.8077 6.67225 76.0818
lradius 32.5571
lwrist -4.44519
lhand -3.61282 41.9692
lfingers 7.12502
lthumb 22.1257 70.7232
rfemur -16.934 -7.41812 20.1717
rtibia 41.277
rfoot -23.4161 -2.65462
rtoes 1.67387
lfemur -11.5808 -4.64044 -24.717
ltibia 28.9335
lfoot -21.6059 -2.91308
ltoes 5.41421
2
root 1.16426 17.361 -33.5576 3.59764 4.33373 0.287118
lowerback 5.38622 -3.22415 -5.28788
upperback 0.727798 -4.63579 -1.72464
thorax -1.98787 -2.2745 1.48961
lowerneck -9.26523 -9.14899 -2.90128
upperneck 8.89025 -13.2971 11.3867
head 5.17539 -5.98277 2.94784
rclavicle 4.07509e-014 1.66979e-014
rhumerus -36.1598 -35.1983 -63.4553
rradius 18.1209
rwrist 4.33552
rhand -15.2856 15.9502
rfingers 7.12502
rthumb 10.8892 -13.7475
lclavicle 4.07509e-014 1.66979e-014
lhumerus -35.8198 6.6513 76.0219
lradius 32.2539
lwrist -4.52461
lhand -3.9802 41.641
lfingers 7.12502
lthumb 21.773 70.4364
rfemur -16.4984 -6.80622 20.2828
rtibia 40.3871
rfoot -22.4368 -2.31794
rtoes 6.30136
lfemur -11.4873 -4.57018 -24.5132
ltibia 28.869
lfoot -21.6477 -2.61445
ltoes 4.58906
3
root 1.16014 17.3595 -33.5549 3.56286 4.23078 0.192792
lowerback 5.38041 -3.15891 -5.18033
upperback 0.703704 -4.54273 -1.67783
thorax -2.01983 -2.22784 1.47359
lowerneck -9.03788 -9.16927 -2.99925
upperneck 8.6118 -13.2781 11.3808
head 5.05541 -5.99723 2.97777
rclavicle 1.46107e-014 -1.19271e-014
rhumerus -36.2796 -35.2241 -63.3317
rradius 17.9536
rwrist 4.17351
rhand -15.2897 16.0951
rfingers 7.12502
rthumb 10.8853 -13.6027
lclavicle 1.46107e-014 -1.19271e-014
lhumerus -35.8506 7.02877 75.8557
lradius 31.9361
lwrist -4.81449
lhand -4.22103 42.0361
lfingers 7.12502
lthumb 21.5417 70.8581
rfemur -16.1855 -6.62084 20.3407
rtibia 39.8378
rfoot -22.4 -2.2787
rtoes 4.72475
lfemur -11.5018 -4.54843 -24.4005
ltibia 28.9777
lfoot -21.7001 -2.35137
ltoes 5.12293
4
root 1.15032 17.3524 -33.5537 3.58989 4.0253 0.236031
lowerback 5.28526 -3.03907 -5.30157
upperback 0.696465 -4.38327 -1.64308
thorax -1.9721 -2.14863 1.56098
lowerneck -8.88743 -9.17918 -2.8357
upperneck 8.23691 -13.2275 11.0611
head 4.87658 -6.00647 2.8755
rclavicle 4.90998e-014 1.35174e-014
rhumerus -36.4493 -35.3036 -63.2239
rradius 18.0276
rwrist 3.99789
rhand -15.1538 16.27
rfingers 7.12502
rthumb 11.0164 -13.4209
lclavicle 4.90998e-014 1.35174e-014
lhumerus -35.9532 7.03164 75.8396
lradius 31.9662
lwrist -4.57134
lhand -3.63268 42.846
lfingers 7.12502
lthumb 22.1066 71.6023
rfemur -15.9599 -6.2899 20.3241
rtibia 39.2969
rfoot -22.0627 -2.88101
rtoes 5.27457
lfemur -11.5243 -4.26078 -24.4125
ltibia 29.0034
lfoot -21.9018 -2.4353
ltoes 3.65243
5
root 1.14564 17.3474 -33.5469 3.56532 3.87744 0.0822633
lowerback 5.1949 -2.99713 -5.07664
upperback 0.695039 -4.30826 -1.60518
thorax -1.94142 -2.11386 1.46607
lowerneck -8.83538 -9.1146 -2.97179
upperneck 8.12498 -13.1109 11.0727
head 4.83456 -5.95926 2.91456
rclavicle 3.25013e-014 -5.56597e-015
rhumerus -36.6509 -35.7068 -62.9443
rradius 17.8774
rwrist 4.32302
rhand -14.8097 16.2445
rfingers 7.12502
rthumb 11.3483 -13.4285
lclavicle 3.25013e-014 -5.56597e-015
lhumerus -36.0389 7.29824 75.6464
lradius 31.7857
lwrist -4.57842
lhand -3.61778 42.1368
lfingers 7.12502
lthumb 22.121 70.8913
rfemur -15.6587 -6.00509 20.4728
rtibia 38.7872
rfoot -21.8397 -3.20753
rtoes 4.86126
lfemur -11.507 -4.29225 -24.2128
ltibia 29.0705
lfoot -22.0316 -2.33355
ltoes 5.30997
6
root 1.14743 17.3493 -33.5436 3.67805 3.74722 0.248485
lowerback 4.99049 -2.97341 -5.11085
upperback 0.656566 -4.26729 -1.62964
thorax -1.86879 -2.09465 1.44647
lowerneck -9.01152 -9.0655 -2.90437
upperneck 8.26262 -13.0255 10.7435
head 4.87192 -5.92158 2.8031
rclavicle -7.35503e-015 3.10104e-014
rhumerus -36.6342 -35.3736 -63.1004
rradius 17.9029
rwrist 3.99361
rhand -14.6425 16.7281
rfingers 7.12502
rthumb 11.5096 -12.9359
lclavicle -7.35503e-015 3.10104e-014
lhumerus -36.0232 7.43871 75.5694
lradius 31.3811
lwrist -4.4968
lhand -4.20249 41.1662
lfingers 7.12502
lthumb 21.5595 69.9862
rfemur -15.5033 -6.01197 20.229
rtibia 38.3647
rfoot -22.1647 -2.35802
rtoes 6.72733
lfemur -11.4907 -4.11623 -24.4105
ltibia 29.0504
lfoot -22.1474 -2.22312
ltoes 3.19698
7
root 1.13595 17.3525 -33.5383 3.62398 3.47449 -0.109844
lowerback 5.00937 -2.94222 -4.79491
upperback 0.584963 -4.21083 -1.4994
thorax -1.96949 -2.06542 1.4063
lowerneck -8.98009 -8.94558 -3.03254
upperneck 8.39151 -12.8493 10.661
head 4.89593 -5.83994 2.81285
rclavicle 1.53064e-014 9.54166e-015
rhumerus -36.5609 -34.935 -63.4823
rradius 18.0499
rwrist 3.21827
rhand -14.7597 16.5176
rfingers 7.12502
rthumb 11.3965 -13.1527
lclavicle 1.53064e-014 9.54166e-015
lhumerus -36.3759 7.90634 75.2126
lradius 31.2792
lwrist -4.94756
lhand -3.77251 40.8011
lfingers 7.12502
lthumb 21.9724 69.5732
rfemur -15.1342 -5.59233 20.7126
rtibia 37.8172
rfoot -21.8826 -2.20812
rtoes 4.62502
lfemur -11.5182 -3.95286 -23.9703
ltibia 29.0828
lfoot -22.312 -1.99037
ltoes 3.58455
8
root 1.13206 17.3571 -33.5368 3.71401 3.40597 0.0871901
lowerback 4.931 -2.95602 -4.88563
upperback 0.500741 -4.23403 -1.55318
thorax -2.00889 -2.0743 1.40084
lowerneck -9.1956 -8.97439 -2.90738
upperneck 8.63554 -12.8819 10.2846
head 4.97454 -5.85638 2.66391
rclavicle 2.31584e-014 1.66979e-014
rhumerus -36.9728 -35.4511 -63.0078
rradius 17.907
rwrist 3.96246
rhand -14.3741 16.6136
rfingers 7.12502
rthumb 11.7684 -13.0358
lclavicle 2.31584e-014 1.66979e-014
lhumerus -36.3589 8.46701 74.9042
lradius 30.7946
lwrist -5.42429
lhand -4.24878 41.0305
lfingers 7.12502
lthumb 21.515 69.8556
rfemur -14.8568 -5.57928 20.5498
rtibia 37.2797
rfoot -21.9466 -2.0817
rtoes 5.29262
lfemur -11.5509 -4.05795 -24.1924
ltibia 29.0854
lfoot -22.1075 -2.03512
ltoes 3.31242
9
root 1.11868 17.3574 -33.5334 3.63871 3.33062 -0.165363
lowerback 4.8307 -2.9592 -4.61444
upperback 0.552419 -4.21378 -1.47016
thorax -1.91372 -2.06932 1.3272
lowerneck -9.17527 -8.87423 -2.9151
upperneck 8.56546 -12.7135 10.1024
head 4.92561 -5.78799 2.62797
rclavicle 6.37105e-014 8.74653e-015
rhumerus -36.8619 -35.2045 -63.3441
rradius 18.0175
rwrist 3.51813
rhand -14.8064 16.3714
rfingers 7.12502
rthumb 11.3515 -13.3013
lclavicle 6.37105e-014 8.74653e-015
lhumerus -36.33 8.72598 74.7566
lradius 30.5766
lwrist -5.18783
lhand -3.91809 42.4472
lfingers 7.12502
lthumb 21.8326 71.2356
rfemur -14.459 -5.52801 20.9512
rtibia 36.6646
rfoot -22.1217 -2.63205
rtoes 4.86306
lfemur -11.5145 -4.33794 -23.8319
ltibia 29.1679
lfoot -22.3514 -1.99501
ltoes 5.96867
